<?xml version="1.0" encoding="UTF-8" standalone="no"?>
<!DOCTYPE svg PUBLIC "-//W3C//DTD SVG 1.1//EN"
 "http://www.w3.org/Graphics/SVG/1.1/DTD/svg11.dtd">
<!-- Generated by graphviz version 2.28.0 (20110507.0327)
 -->
<!-- Title: ast_ascendente Pages: 1 -->
<svg width="316pt" height="476pt"
 viewBox="0.00 0.00 316.00 476.00" xmlns="http://www.w3.org/2000/svg" xmlns:xlink="http://www.w3.org/1999/xlink">
<g id="graph1" class="graph" transform="scale(1 1) rotate(0) translate(4 472)">
<title>ast_ascendente</title>
<polygon fill="white" stroke="white" points="-4,5 -4,-472 313,-472 313,5 -4,5"/>
<!-- init -->
<g id="node1" class="node"><title>init</title>
<ellipse fill="none" stroke="black" cx="144" cy="-450" rx="27" ry="18"/>
<text text-anchor="middle" x="144" y="-446.3" font-family="Times New Roman,serif" font-size="14.00">init</text>
</g>
<!-- labels -->
<g id="node3" class="node"><title>labels</title>
<ellipse fill="none" stroke="black" cx="144" cy="-378" rx="31.2965" ry="18"/>
<text text-anchor="middle" x="144" y="-374.3" font-family="Times New Roman,serif" font-size="14.00">labels</text>
</g>
<!-- init&#45;&gt;labels -->
<g id="edge2" class="edge"><title>init&#45;&gt;labels</title>
<path fill="none" stroke="black" d="M144,-431.697C144,-423.983 144,-414.712 144,-406.112"/>
<polygon fill="black" stroke="black" points="147.5,-406.104 144,-396.104 140.5,-406.104 147.5,-406.104"/>
</g>
<!-- et_main -->
<g id="node5" class="node"><title>et_main</title>
<ellipse fill="none" stroke="black" cx="144" cy="-306" rx="38.4949" ry="18"/>
<text text-anchor="middle" x="144" y="-302.3" font-family="Times New Roman,serif" font-size="14.00">et_main</text>
</g>
<!-- labels&#45;&gt;et_main -->
<g id="edge4" class="edge"><title>labels&#45;&gt;et_main</title>
<path fill="none" stroke="black" d="M144,-359.697C144,-351.983 144,-342.712 144,-334.112"/>
<polygon fill="black" stroke="black" points="147.5,-334.104 144,-324.104 140.5,-334.104 147.5,-334.104"/>
</g>
<!-- et_main_instrucciones -->
<g id="node7" class="node"><title>et_main_instrucciones</title>
<ellipse fill="none" stroke="black" cx="144" cy="-234" rx="91.4625" ry="18"/>
<text text-anchor="middle" x="144" y="-230.3" font-family="Times New Roman,serif" font-size="14.00">et_main_instrucciones</text>
</g>
<!-- et_main&#45;&gt;et_main_instrucciones -->
<g id="edge6" class="edge"><title>et_main&#45;&gt;et_main_instrucciones</title>
<path fill="none" stroke="black" d="M144,-287.697C144,-279.983 144,-270.712 144,-262.112"/>
<polygon fill="black" stroke="black" points="147.5,-262.104 144,-252.104 140.5,-262.104 147.5,-262.104"/>
</g>
<!-- &lt;Arbol.Print.Print object at 0x0000021A16915CA0&gt; -->
<g id="node9" class="node"><title>&lt;Arbol.Print.Print object at 0x0000021A16915CA0&gt;</title>
<ellipse fill="none" stroke="black" cx="144" cy="-162" rx="44.271" ry="18"/>
<text text-anchor="middle" x="144" y="-158.3" font-family="Times New Roman,serif" font-size="14.00">print_inst</text>
</g>
<!-- et_main_instrucciones&#45;&gt;&lt;Arbol.Print.Print object at 0x0000021A16915CA0&gt; -->
<g id="edge8" class="edge"><title>et_main_instrucciones&#45;&gt;&lt;Arbol.Print.Print object at 0x0000021A16915CA0&gt;</title>
<path fill="none" stroke="black" d="M144,-215.697C144,-207.983 144,-198.712 144,-190.112"/>
<polygon fill="black" stroke="black" points="147.5,-190.104 144,-180.104 140.5,-190.104 147.5,-190.104"/>
</g>
<!-- print_&lt;Arbol.Print.Print object at 0x0000021A16915CA0&gt; -->
<g id="node10" class="node"><title>print_&lt;Arbol.Print.Print object at 0x0000021A16915CA0&gt;</title>
<ellipse fill="none" stroke="black" cx="27" cy="-90" rx="26.949" ry="18"/>
<text text-anchor="middle" x="27" y="-86.3" font-family="Times New Roman,serif" font-size="14.00">print</text>
</g>
<!-- &lt;Arbol.Print.Print object at 0x0000021A16915CA0&gt;&#45;&gt;print_&lt;Arbol.Print.Print object at 0x0000021A16915CA0&gt; -->
<g id="edge10" class="edge"><title>&lt;Arbol.Print.Print object at 0x0000021A16915CA0&gt;&#45;&gt;print_&lt;Arbol.Print.Print object at 0x0000021A16915CA0&gt;</title>
<path fill="none" stroke="black" d="M120.041,-146.666C101.257,-135.427 75.07,-119.76 55.262,-107.909"/>
<polygon fill="black" stroke="black" points="57.0378,-104.893 46.6594,-102.762 53.4439,-110.9 57.0378,-104.893"/>
</g>
<!-- PIZQ_&lt;Arbol.Print.Print object at 0x0000021A16915CA0&gt; -->
<g id="node12" class="node"><title>PIZQ_&lt;Arbol.Print.Print object at 0x0000021A16915CA0&gt;</title>
<ellipse fill="none" stroke="black" cx="99" cy="-90" rx="27" ry="18"/>
<text text-anchor="middle" x="99" y="-86.3" font-family="Times New Roman,serif" font-size="14.00">(</text>
</g>
<!-- &lt;Arbol.Print.Print object at 0x0000021A16915CA0&gt;&#45;&gt;PIZQ_&lt;Arbol.Print.Print object at 0x0000021A16915CA0&gt; -->
<g id="edge12" class="edge"><title>&lt;Arbol.Print.Print object at 0x0000021A16915CA0&gt;&#45;&gt;PIZQ_&lt;Arbol.Print.Print object at 0x0000021A16915CA0&gt;</title>
<path fill="none" stroke="black" d="M133.336,-144.411C127.821,-135.832 120.98,-125.191 114.859,-115.67"/>
<polygon fill="black" stroke="black" points="117.63,-113.507 109.278,-106.988 111.742,-117.293 117.63,-113.507"/>
</g>
<!-- &lt;Arbol.Unaria.Unaria object at 0x0000021A16915D60&gt; -->
<g id="node14" class="node"><title>&lt;Arbol.Unaria.Unaria object at 0x0000021A16915D60&gt;</title>
<ellipse fill="none" stroke="black" cx="190" cy="-90" rx="46.2191" ry="18"/>
<text text-anchor="middle" x="190" y="-86.3" font-family="Times New Roman,serif" font-size="14.00">expresion</text>
</g>
<!-- &lt;Arbol.Print.Print object at 0x0000021A16915CA0&gt;&#45;&gt;&lt;Arbol.Unaria.Unaria object at 0x0000021A16915D60&gt; -->
<g id="edge14" class="edge"><title>&lt;Arbol.Print.Print object at 0x0000021A16915CA0&gt;&#45;&gt;&lt;Arbol.Unaria.Unaria object at 0x0000021A16915D60&gt;</title>
<path fill="none" stroke="black" d="M154.901,-144.411C160.378,-136.077 167.133,-125.797 173.251,-116.488"/>
<polygon fill="black" stroke="black" points="176.29,-118.235 178.857,-107.956 170.441,-114.391 176.29,-118.235"/>
</g>
<!-- PDER_&lt;Arbol.Print.Print object at 0x0000021A16915CA0&gt; -->
<g id="node16" class="node"><title>PDER_&lt;Arbol.Print.Print object at 0x0000021A16915CA0&gt;</title>
<ellipse fill="none" stroke="black" cx="281" cy="-90" rx="27" ry="18"/>
<text text-anchor="middle" x="281" y="-86.3" font-family="Times New Roman,serif" font-size="14.00">)</text>
</g>
<!-- &lt;Arbol.Print.Print object at 0x0000021A16915CA0&gt;&#45;&gt;PDER_&lt;Arbol.Print.Print object at 0x0000021A16915CA0&gt; -->
<g id="edge16" class="edge"><title>&lt;Arbol.Print.Print object at 0x0000021A16915CA0&gt;&#45;&gt;PDER_&lt;Arbol.Print.Print object at 0x0000021A16915CA0&gt;</title>
<path fill="none" stroke="black" d="M170.415,-147.503C193.479,-135.719 226.936,-118.624 251.002,-106.327"/>
<polygon fill="black" stroke="black" points="252.731,-109.374 260.044,-101.708 249.546,-103.141 252.731,-109.374"/>
</g>
<!-- exp_&lt;Arbol.Unaria.Unaria object at 0x0000021A16915D60&gt; -->
<g id="node18" class="node"><title>exp_&lt;Arbol.Unaria.Unaria object at 0x0000021A16915D60&gt;</title>
<ellipse fill="none" stroke="black" cx="190" cy="-18" rx="48.1437" ry="18"/>
<text text-anchor="middle" x="190" y="-14.3" font-family="Times New Roman,serif" font-size="14.00">CADENA</text>
</g>
<!-- &lt;Arbol.Unaria.Unaria object at 0x0000021A16915D60&gt;&#45;&gt;exp_&lt;Arbol.Unaria.Unaria object at 0x0000021A16915D60&gt; -->
<g id="edge18" class="edge"><title>&lt;Arbol.Unaria.Unaria object at 0x0000021A16915D60&gt;&#45;&gt;exp_&lt;Arbol.Unaria.Unaria object at 0x0000021A16915D60&gt;</title>
<path fill="none" stroke="black" d="M190,-71.6966C190,-63.9827 190,-54.7125 190,-46.1124"/>
<polygon fill="black" stroke="black" points="193.5,-46.1043 190,-36.1043 186.5,-46.1044 193.5,-46.1043"/>
</g>
</g>
</svg>
