<?xml version="1.0" encoding="UTF-8" standalone="no"?>
<!DOCTYPE svg PUBLIC "-//W3C//DTD SVG 1.1//EN"
 "http://www.w3.org/Graphics/SVG/1.1/DTD/svg11.dtd">
<!-- Generated by graphviz version 2.28.0 (20110507.0327)
 -->
<!-- Title: ast_ascendente Pages: 1 -->
<svg width="642pt" height="476pt"
 viewBox="0.00 0.00 642.00 476.00" xmlns="http://www.w3.org/2000/svg" xmlns:xlink="http://www.w3.org/1999/xlink">
<g id="graph1" class="graph" transform="scale(1 1) rotate(0) translate(4 472)">
<title>ast_ascendente</title>
<polygon fill="white" stroke="white" points="-4,5 -4,-472 639,-472 639,5 -4,5"/>
<!-- init -->
<g id="node1" class="node"><title>init</title>
<ellipse fill="none" stroke="black" cx="307" cy="-450" rx="27" ry="18"/>
<text text-anchor="middle" x="307" y="-446.3" font-family="Times New Roman,serif" font-size="14.00">init</text>
</g>
<!-- labels -->
<g id="node3" class="node"><title>labels</title>
<ellipse fill="none" stroke="black" cx="307" cy="-378" rx="31.2965" ry="18"/>
<text text-anchor="middle" x="307" y="-374.3" font-family="Times New Roman,serif" font-size="14.00">labels</text>
</g>
<!-- init&#45;&gt;labels -->
<g id="edge2" class="edge"><title>init&#45;&gt;labels</title>
<path fill="none" stroke="black" d="M307,-431.697C307,-423.983 307,-414.712 307,-406.112"/>
<polygon fill="black" stroke="black" points="310.5,-406.104 307,-396.104 303.5,-406.104 310.5,-406.104"/>
</g>
<!-- et_main -->
<g id="node5" class="node"><title>et_main</title>
<ellipse fill="none" stroke="black" cx="307" cy="-306" rx="38.4949" ry="18"/>
<text text-anchor="middle" x="307" y="-302.3" font-family="Times New Roman,serif" font-size="14.00">et_main</text>
</g>
<!-- labels&#45;&gt;et_main -->
<g id="edge4" class="edge"><title>labels&#45;&gt;et_main</title>
<path fill="none" stroke="black" d="M307,-359.697C307,-351.983 307,-342.712 307,-334.112"/>
<polygon fill="black" stroke="black" points="310.5,-334.104 307,-324.104 303.5,-334.104 310.5,-334.104"/>
</g>
<!-- et_main_instrucciones -->
<g id="node7" class="node"><title>et_main_instrucciones</title>
<ellipse fill="none" stroke="black" cx="307" cy="-234" rx="91.4625" ry="18"/>
<text text-anchor="middle" x="307" y="-230.3" font-family="Times New Roman,serif" font-size="14.00">et_main_instrucciones</text>
</g>
<!-- et_main&#45;&gt;et_main_instrucciones -->
<g id="edge6" class="edge"><title>et_main&#45;&gt;et_main_instrucciones</title>
<path fill="none" stroke="black" d="M307,-287.697C307,-279.983 307,-270.712 307,-262.112"/>
<polygon fill="black" stroke="black" points="310.5,-262.104 307,-252.104 303.5,-262.104 310.5,-262.104"/>
</g>
<!-- &lt;Arbol.Print.Print object at 0x0000018251AF9190&gt; -->
<g id="node9" class="node"><title>&lt;Arbol.Print.Print object at 0x0000018251AF9190&gt;</title>
<ellipse fill="none" stroke="black" cx="190" cy="-162" rx="44.271" ry="18"/>
<text text-anchor="middle" x="190" y="-158.3" font-family="Times New Roman,serif" font-size="14.00">print_inst</text>
</g>
<!-- et_main_instrucciones&#45;&gt;&lt;Arbol.Print.Print object at 0x0000018251AF9190&gt; -->
<g id="edge8" class="edge"><title>et_main_instrucciones&#45;&gt;&lt;Arbol.Print.Print object at 0x0000018251AF9190&gt;</title>
<path fill="none" stroke="black" d="M279.864,-216.765C262.848,-206.584 240.806,-193.397 222.811,-182.631"/>
<polygon fill="black" stroke="black" points="224.196,-179.381 213.818,-177.25 220.602,-185.388 224.196,-179.381"/>
</g>
<!-- &lt;Arbol.Print.Print object at 0x0000018251AF90A0&gt; -->
<g id="node21" class="node"><title>&lt;Arbol.Print.Print object at 0x0000018251AF90A0&gt;</title>
<ellipse fill="none" stroke="black" cx="425" cy="-162" rx="44.271" ry="18"/>
<text text-anchor="middle" x="425" y="-158.3" font-family="Times New Roman,serif" font-size="14.00">print_inst</text>
</g>
<!-- et_main_instrucciones&#45;&gt;&lt;Arbol.Print.Print object at 0x0000018251AF90A0&gt; -->
<g id="edge20" class="edge"><title>et_main_instrucciones&#45;&gt;&lt;Arbol.Print.Print object at 0x0000018251AF90A0&gt;</title>
<path fill="none" stroke="black" d="M334.368,-216.765C351.529,-206.584 373.76,-193.397 391.908,-182.631"/>
<polygon fill="black" stroke="black" points="394.164,-185.362 400.979,-177.25 390.592,-179.342 394.164,-185.362"/>
</g>
<!-- print_&lt;Arbol.Print.Print object at 0x0000018251AF9190&gt; -->
<g id="node10" class="node"><title>print_&lt;Arbol.Print.Print object at 0x0000018251AF9190&gt;</title>
<ellipse fill="none" stroke="black" cx="27" cy="-90" rx="26.949" ry="18"/>
<text text-anchor="middle" x="27" y="-86.3" font-family="Times New Roman,serif" font-size="14.00">print</text>
</g>
<!-- &lt;Arbol.Print.Print object at 0x0000018251AF9190&gt;&#45;&gt;print_&lt;Arbol.Print.Print object at 0x0000018251AF9190&gt; -->
<g id="edge10" class="edge"><title>&lt;Arbol.Print.Print object at 0x0000018251AF9190&gt;&#45;&gt;print_&lt;Arbol.Print.Print object at 0x0000018251AF9190&gt;</title>
<path fill="none" stroke="black" d="M159.554,-148.752C133.721,-138.25 95.748,-122.556 63,-108 61.1999,-107.2 59.3545,-106.367 57.4961,-105.519"/>
<polygon fill="black" stroke="black" points="58.7905,-102.261 48.246,-101.23 55.8459,-108.612 58.7905,-102.261"/>
</g>
<!-- PIZQ_&lt;Arbol.Print.Print object at 0x0000018251AF9190&gt; -->
<g id="node12" class="node"><title>PIZQ_&lt;Arbol.Print.Print object at 0x0000018251AF9190&gt;</title>
<ellipse fill="none" stroke="black" cx="99" cy="-90" rx="27" ry="18"/>
<text text-anchor="middle" x="99" y="-86.3" font-family="Times New Roman,serif" font-size="14.00">(</text>
</g>
<!-- &lt;Arbol.Print.Print object at 0x0000018251AF9190&gt;&#45;&gt;PIZQ_&lt;Arbol.Print.Print object at 0x0000018251AF9190&gt; -->
<g id="edge12" class="edge"><title>&lt;Arbol.Print.Print object at 0x0000018251AF9190&gt;&#45;&gt;PIZQ_&lt;Arbol.Print.Print object at 0x0000018251AF9190&gt;</title>
<path fill="none" stroke="black" d="M170.254,-145.811C156.708,-135.391 138.621,-121.478 124.06,-110.277"/>
<polygon fill="black" stroke="black" points="126.015,-107.365 115.955,-104.042 121.747,-112.913 126.015,-107.365"/>
</g>
<!-- &lt;Arbol.Unaria.Unaria object at 0x0000018251AF9250&gt; -->
<g id="node14" class="node"><title>&lt;Arbol.Unaria.Unaria object at 0x0000018251AF9250&gt;</title>
<ellipse fill="none" stroke="black" cx="190" cy="-90" rx="46.2191" ry="18"/>
<text text-anchor="middle" x="190" y="-86.3" font-family="Times New Roman,serif" font-size="14.00">expresion</text>
</g>
<!-- &lt;Arbol.Print.Print object at 0x0000018251AF9190&gt;&#45;&gt;&lt;Arbol.Unaria.Unaria object at 0x0000018251AF9250&gt; -->
<g id="edge14" class="edge"><title>&lt;Arbol.Print.Print object at 0x0000018251AF9190&gt;&#45;&gt;&lt;Arbol.Unaria.Unaria object at 0x0000018251AF9250&gt;</title>
<path fill="none" stroke="black" d="M190,-143.697C190,-135.983 190,-126.712 190,-118.112"/>
<polygon fill="black" stroke="black" points="193.5,-118.104 190,-108.104 186.5,-118.104 193.5,-118.104"/>
</g>
<!-- PDER_&lt;Arbol.Print.Print object at 0x0000018251AF9190&gt; -->
<g id="node16" class="node"><title>PDER_&lt;Arbol.Print.Print object at 0x0000018251AF9190&gt;</title>
<ellipse fill="none" stroke="black" cx="281" cy="-90" rx="27" ry="18"/>
<text text-anchor="middle" x="281" y="-86.3" font-family="Times New Roman,serif" font-size="14.00">)</text>
</g>
<!-- &lt;Arbol.Print.Print object at 0x0000018251AF9190&gt;&#45;&gt;PDER_&lt;Arbol.Print.Print object at 0x0000018251AF9190&gt; -->
<g id="edge16" class="edge"><title>&lt;Arbol.Print.Print object at 0x0000018251AF9190&gt;&#45;&gt;PDER_&lt;Arbol.Print.Print object at 0x0000018251AF9190&gt;</title>
<path fill="none" stroke="black" d="M209.746,-145.811C223.292,-135.391 241.379,-121.478 255.94,-110.277"/>
<polygon fill="black" stroke="black" points="258.253,-112.913 264.045,-104.042 253.985,-107.365 258.253,-112.913"/>
</g>
<!-- exp_&lt;Arbol.Unaria.Unaria object at 0x0000018251AF9250&gt; -->
<g id="node18" class="node"><title>exp_&lt;Arbol.Unaria.Unaria object at 0x0000018251AF9250&gt;</title>
<ellipse fill="none" stroke="black" cx="190" cy="-18" rx="48.1437" ry="18"/>
<text text-anchor="middle" x="190" y="-14.3" font-family="Times New Roman,serif" font-size="14.00">CADENA</text>
</g>
<!-- &lt;Arbol.Unaria.Unaria object at 0x0000018251AF9250&gt;&#45;&gt;exp_&lt;Arbol.Unaria.Unaria object at 0x0000018251AF9250&gt; -->
<g id="edge18" class="edge"><title>&lt;Arbol.Unaria.Unaria object at 0x0000018251AF9250&gt;&#45;&gt;exp_&lt;Arbol.Unaria.Unaria object at 0x0000018251AF9250&gt;</title>
<path fill="none" stroke="black" d="M190,-71.6966C190,-63.9827 190,-54.7125 190,-46.1124"/>
<polygon fill="black" stroke="black" points="193.5,-46.1043 190,-36.1043 186.5,-46.1044 193.5,-46.1043"/>
</g>
<!-- print_&lt;Arbol.Print.Print object at 0x0000018251AF90A0&gt; -->
<g id="node22" class="node"><title>print_&lt;Arbol.Print.Print object at 0x0000018251AF90A0&gt;</title>
<ellipse fill="none" stroke="black" cx="353" cy="-90" rx="26.949" ry="18"/>
<text text-anchor="middle" x="353" y="-86.3" font-family="Times New Roman,serif" font-size="14.00">print</text>
</g>
<!-- &lt;Arbol.Print.Print object at 0x0000018251AF90A0&gt;&#45;&gt;print_&lt;Arbol.Print.Print object at 0x0000018251AF90A0&gt; -->
<g id="edge22" class="edge"><title>&lt;Arbol.Print.Print object at 0x0000018251AF90A0&gt;&#45;&gt;print_&lt;Arbol.Print.Print object at 0x0000018251AF90A0&gt;</title>
<path fill="none" stroke="black" d="M408.662,-145.116C398.78,-135.508 386.046,-123.128 375.252,-112.634"/>
<polygon fill="black" stroke="black" points="377.414,-109.854 367.804,-105.393 372.534,-114.873 377.414,-109.854"/>
</g>
<!-- PIZQ_&lt;Arbol.Print.Print object at 0x0000018251AF90A0&gt; -->
<g id="node24" class="node"><title>PIZQ_&lt;Arbol.Print.Print object at 0x0000018251AF90A0&gt;</title>
<ellipse fill="none" stroke="black" cx="425" cy="-90" rx="27" ry="18"/>
<text text-anchor="middle" x="425" y="-86.3" font-family="Times New Roman,serif" font-size="14.00">(</text>
</g>
<!-- &lt;Arbol.Print.Print object at 0x0000018251AF90A0&gt;&#45;&gt;PIZQ_&lt;Arbol.Print.Print object at 0x0000018251AF90A0&gt; -->
<g id="edge24" class="edge"><title>&lt;Arbol.Print.Print object at 0x0000018251AF90A0&gt;&#45;&gt;PIZQ_&lt;Arbol.Print.Print object at 0x0000018251AF90A0&gt;</title>
<path fill="none" stroke="black" d="M425,-143.697C425,-135.983 425,-126.712 425,-118.112"/>
<polygon fill="black" stroke="black" points="428.5,-118.104 425,-108.104 421.5,-118.104 428.5,-118.104"/>
</g>
<!-- &lt;Arbol.Unaria.Unaria object at 0x0000018251AF9460&gt; -->
<g id="node26" class="node"><title>&lt;Arbol.Unaria.Unaria object at 0x0000018251AF9460&gt;</title>
<ellipse fill="none" stroke="black" cx="516" cy="-90" rx="46.2191" ry="18"/>
<text text-anchor="middle" x="516" y="-86.3" font-family="Times New Roman,serif" font-size="14.00">expresion</text>
</g>
<!-- &lt;Arbol.Print.Print object at 0x0000018251AF90A0&gt;&#45;&gt;&lt;Arbol.Unaria.Unaria object at 0x0000018251AF9460&gt; -->
<g id="edge26" class="edge"><title>&lt;Arbol.Print.Print object at 0x0000018251AF90A0&gt;&#45;&gt;&lt;Arbol.Unaria.Unaria object at 0x0000018251AF9460&gt;</title>
<path fill="none" stroke="black" d="M444.746,-145.811C457.299,-136.154 473.753,-123.498 487.686,-112.78"/>
<polygon fill="black" stroke="black" points="490.186,-115.272 495.979,-106.401 485.918,-109.724 490.186,-115.272"/>
</g>
<!-- PDER_&lt;Arbol.Print.Print object at 0x0000018251AF90A0&gt; -->
<g id="node28" class="node"><title>PDER_&lt;Arbol.Print.Print object at 0x0000018251AF90A0&gt;</title>
<ellipse fill="none" stroke="black" cx="607" cy="-90" rx="27" ry="18"/>
<text text-anchor="middle" x="607" y="-86.3" font-family="Times New Roman,serif" font-size="14.00">)</text>
</g>
<!-- &lt;Arbol.Print.Print object at 0x0000018251AF90A0&gt;&#45;&gt;PDER_&lt;Arbol.Print.Print object at 0x0000018251AF90A0&gt; -->
<g id="edge28" class="edge"><title>&lt;Arbol.Print.Print object at 0x0000018251AF90A0&gt;&#45;&gt;PDER_&lt;Arbol.Print.Print object at 0x0000018251AF90A0&gt;</title>
<path fill="none" stroke="black" d="M458.098,-149.969C487.911,-139.801 532.79,-123.917 571,-108 572.818,-107.243 574.678,-106.443 576.547,-105.62"/>
<polygon fill="black" stroke="black" points="578.174,-108.726 585.827,-101.399 575.275,-102.354 578.174,-108.726"/>
</g>
<!-- exp_&lt;Arbol.Unaria.Unaria object at 0x0000018251AF9460&gt; -->
<g id="node30" class="node"><title>exp_&lt;Arbol.Unaria.Unaria object at 0x0000018251AF9460&gt;</title>
<ellipse fill="none" stroke="black" cx="516" cy="-18" rx="81.3646" ry="18"/>
<text text-anchor="middle" x="516" y="-14.3" font-family="Times New Roman,serif" font-size="14.00">IDENTIFICADOR</text>
</g>
<!-- &lt;Arbol.Unaria.Unaria object at 0x0000018251AF9460&gt;&#45;&gt;exp_&lt;Arbol.Unaria.Unaria object at 0x0000018251AF9460&gt; -->
<g id="edge30" class="edge"><title>&lt;Arbol.Unaria.Unaria object at 0x0000018251AF9460&gt;&#45;&gt;exp_&lt;Arbol.Unaria.Unaria object at 0x0000018251AF9460&gt;</title>
<path fill="none" stroke="black" d="M516,-71.6966C516,-63.9827 516,-54.7125 516,-46.1124"/>
<polygon fill="black" stroke="black" points="519.5,-46.1043 516,-36.1043 512.5,-46.1044 519.5,-46.1043"/>
</g>
</g>
</svg>
