<?xml version="1.0" encoding="UTF-8" standalone="no"?>
<!DOCTYPE svg PUBLIC "-//W3C//DTD SVG 1.1//EN"
 "http://www.w3.org/Graphics/SVG/1.1/DTD/svg11.dtd">
<!-- Generated by graphviz version 2.28.0 (20110507.0327)
 -->
<!-- Title: ast_ascendente Pages: 1 -->
<svg width="470pt" height="692pt"
 viewBox="0.00 0.00 470.00 692.00" xmlns="http://www.w3.org/2000/svg" xmlns:xlink="http://www.w3.org/1999/xlink">
<g id="graph1" class="graph" transform="scale(1 1) rotate(0) translate(4 688)">
<title>ast_ascendente</title>
<polygon fill="white" stroke="white" points="-4,5 -4,-688 467,-688 467,5 -4,5"/>
<!-- init -->
<g id="node1" class="node"><title>init</title>
<ellipse fill="none" stroke="black" cx="268" cy="-666" rx="27" ry="18"/>
<text text-anchor="middle" x="268" y="-662.3" font-family="Times New Roman,serif" font-size="14.00">init</text>
</g>
<!-- labels -->
<g id="node3" class="node"><title>labels</title>
<ellipse fill="none" stroke="black" cx="268" cy="-594" rx="31.2965" ry="18"/>
<text text-anchor="middle" x="268" y="-590.3" font-family="Times New Roman,serif" font-size="14.00">labels</text>
</g>
<!-- init&#45;&gt;labels -->
<g id="edge2" class="edge"><title>init&#45;&gt;labels</title>
<path fill="none" stroke="black" d="M268,-647.697C268,-639.983 268,-630.712 268,-622.112"/>
<polygon fill="black" stroke="black" points="271.5,-622.104 268,-612.104 264.5,-622.104 271.5,-622.104"/>
</g>
<!-- et_main -->
<g id="node5" class="node"><title>et_main</title>
<ellipse fill="none" stroke="black" cx="220" cy="-522" rx="38.4949" ry="18"/>
<text text-anchor="middle" x="220" y="-518.3" font-family="Times New Roman,serif" font-size="14.00">et_main</text>
</g>
<!-- labels&#45;&gt;et_main -->
<g id="edge4" class="edge"><title>labels&#45;&gt;et_main</title>
<path fill="none" stroke="black" d="M257.108,-577.116C251.178,-568.469 243.709,-557.575 237.028,-547.833"/>
<polygon fill="black" stroke="black" points="239.724,-545.575 231.182,-539.307 233.951,-549.534 239.724,-545.575"/>
</g>
<!-- labels_1 -->
<g id="node7" class="node"><title>labels_1</title>
<ellipse fill="none" stroke="black" cx="317" cy="-522" rx="39.9464" ry="18"/>
<text text-anchor="middle" x="317" y="-518.3" font-family="Times New Roman,serif" font-size="14.00">labels_1</text>
</g>
<!-- labels&#45;&gt;labels_1 -->
<g id="edge6" class="edge"><title>labels&#45;&gt;labels_1</title>
<path fill="none" stroke="black" d="M279.119,-577.116C285.234,-568.38 292.953,-557.353 299.825,-547.535"/>
<polygon fill="black" stroke="black" points="302.718,-549.506 305.585,-539.307 296.983,-545.492 302.718,-549.506"/>
</g>
<!-- et_main_instrucciones -->
<g id="node9" class="node"><title>et_main_instrucciones</title>
<ellipse fill="none" stroke="black" cx="220" cy="-450" rx="58.2422" ry="18"/>
<text text-anchor="middle" x="220" y="-446.3" font-family="Times New Roman,serif" font-size="14.00">instrucciones</text>
</g>
<!-- et_main&#45;&gt;et_main_instrucciones -->
<g id="edge8" class="edge"><title>et_main&#45;&gt;et_main_instrucciones</title>
<path fill="none" stroke="black" d="M220,-503.697C220,-495.983 220,-486.712 220,-478.112"/>
<polygon fill="black" stroke="black" points="223.5,-478.104 220,-468.104 216.5,-478.104 223.5,-478.104"/>
</g>
<!-- et_main_instruccion -->
<g id="node11" class="node"><title>et_main_instruccion</title>
<ellipse fill="none" stroke="black" cx="156" cy="-378" rx="50.5427" ry="18"/>
<text text-anchor="middle" x="156" y="-374.3" font-family="Times New Roman,serif" font-size="14.00">instruccion</text>
</g>
<!-- et_main_instrucciones&#45;&gt;et_main_instruccion -->
<g id="edge10" class="edge"><title>et_main_instrucciones&#45;&gt;et_main_instruccion</title>
<path fill="none" stroke="black" d="M204.833,-432.411C196.783,-423.606 186.746,-412.628 177.869,-402.919"/>
<polygon fill="black" stroke="black" points="180.389,-400.489 171.058,-395.47 175.223,-405.212 180.389,-400.489"/>
</g>
<!-- et_main_instrucciones_1 -->
<g id="node15" class="node"><title>et_main_instrucciones_1</title>
<ellipse fill="none" stroke="black" cx="285" cy="-378" rx="60.1672" ry="18"/>
<text text-anchor="middle" x="285" y="-374.3" font-family="Times New Roman,serif" font-size="14.00">instrucciones&#39;</text>
</g>
<!-- et_main_instrucciones&#45;&gt;et_main_instrucciones_1 -->
<g id="edge14" class="edge"><title>et_main_instrucciones&#45;&gt;et_main_instrucciones_1</title>
<path fill="none" stroke="black" d="M235.404,-432.411C243.58,-423.606 253.774,-412.628 262.79,-402.919"/>
<polygon fill="black" stroke="black" points="265.467,-405.179 269.706,-395.47 260.337,-400.416 265.467,-405.179"/>
</g>
<!-- &lt;Arbol.Asignacion.Asignacion object at 0x000002C05B4EA580&gt; -->
<g id="node13" class="node"><title>&lt;Arbol.Asignacion.Asignacion object at 0x000002C05B4EA580&gt;</title>
<ellipse fill="none" stroke="black" cx="156" cy="-306" rx="42.3701" ry="18"/>
<text text-anchor="middle" x="156" y="-302.3" font-family="Times New Roman,serif" font-size="14.00">asig_inst</text>
</g>
<!-- et_main_instruccion&#45;&gt;&lt;Arbol.Asignacion.Asignacion object at 0x000002C05B4EA580&gt; -->
<g id="edge12" class="edge"><title>et_main_instruccion&#45;&gt;&lt;Arbol.Asignacion.Asignacion object at 0x000002C05B4EA580&gt;</title>
<path fill="none" stroke="black" d="M156,-359.697C156,-351.983 156,-342.712 156,-334.112"/>
<polygon fill="black" stroke="black" points="159.5,-334.104 156,-324.104 152.5,-334.104 159.5,-334.104"/>
</g>
<!-- id_&lt;Arbol.Asignacion.Asignacion object at 0x000002C05B4EA580&gt; -->
<g id="node16" class="node"><title>id_&lt;Arbol.Asignacion.Asignacion object at 0x000002C05B4EA580&gt;</title>
<ellipse fill="none" stroke="black" cx="55" cy="-234" rx="55.3436" ry="18"/>
<text text-anchor="middle" x="55" y="-230.3" font-family="Times New Roman,serif" font-size="14.00">identificador</text>
</g>
<!-- &lt;Arbol.Asignacion.Asignacion object at 0x000002C05B4EA580&gt;&#45;&gt;id_&lt;Arbol.Asignacion.Asignacion object at 0x000002C05B4EA580&gt; -->
<g id="edge16" class="edge"><title>&lt;Arbol.Asignacion.Asignacion object at 0x000002C05B4EA580&gt;&#45;&gt;id_&lt;Arbol.Asignacion.Asignacion object at 0x000002C05B4EA580&gt;</title>
<path fill="none" stroke="black" d="M134.58,-290.155C120.412,-280.335 101.61,-267.304 85.8395,-256.374"/>
<polygon fill="black" stroke="black" points="87.6514,-253.371 77.4387,-250.552 83.664,-259.125 87.6514,-253.371"/>
</g>
<!-- asig_&lt;Arbol.Asignacion.Asignacion object at 0x000002C05B4EA580&gt; -->
<g id="node18" class="node"><title>asig_&lt;Arbol.Asignacion.Asignacion object at 0x000002C05B4EA580&gt;</title>
<ellipse fill="none" stroke="black" cx="156" cy="-234" rx="27" ry="18"/>
<text text-anchor="middle" x="156" y="-230.3" font-family="Times New Roman,serif" font-size="14.00">=</text>
</g>
<!-- &lt;Arbol.Asignacion.Asignacion object at 0x000002C05B4EA580&gt;&#45;&gt;asig_&lt;Arbol.Asignacion.Asignacion object at 0x000002C05B4EA580&gt; -->
<g id="edge18" class="edge"><title>&lt;Arbol.Asignacion.Asignacion object at 0x000002C05B4EA580&gt;&#45;&gt;asig_&lt;Arbol.Asignacion.Asignacion object at 0x000002C05B4EA580&gt;</title>
<path fill="none" stroke="black" d="M156,-287.697C156,-279.983 156,-270.712 156,-262.112"/>
<polygon fill="black" stroke="black" points="159.5,-262.104 156,-252.104 152.5,-262.104 159.5,-262.104"/>
</g>
<!-- &lt;Arbol.Acceso.Acceso object at 0x000002C05B4EA5E0&gt; -->
<g id="node20" class="node"><title>&lt;Arbol.Acceso.Acceso object at 0x000002C05B4EA5E0&gt;</title>
<ellipse fill="none" stroke="black" cx="247" cy="-234" rx="46.2191" ry="18"/>
<text text-anchor="middle" x="247" y="-230.3" font-family="Times New Roman,serif" font-size="14.00">expresion</text>
</g>
<!-- &lt;Arbol.Asignacion.Asignacion object at 0x000002C05B4EA580&gt;&#45;&gt;&lt;Arbol.Acceso.Acceso object at 0x000002C05B4EA5E0&gt; -->
<g id="edge20" class="edge"><title>&lt;Arbol.Asignacion.Asignacion object at 0x000002C05B4EA580&gt;&#45;&gt;&lt;Arbol.Acceso.Acceso object at 0x000002C05B4EA5E0&gt;</title>
<path fill="none" stroke="black" d="M175.746,-289.811C188.299,-280.154 204.753,-267.498 218.686,-256.78"/>
<polygon fill="black" stroke="black" points="221.186,-259.272 226.979,-250.401 216.918,-253.724 221.186,-259.272"/>
</g>
<!-- id_&lt;Arbol.Acceso.Acceso object at 0x000002C05B4EA5E0&gt; -->
<g id="node22" class="node"><title>id_&lt;Arbol.Acceso.Acceso object at 0x000002C05B4EA5E0&gt;</title>
<ellipse fill="none" stroke="black" cx="190" cy="-162" rx="55.3436" ry="18"/>
<text text-anchor="middle" x="190" y="-158.3" font-family="Times New Roman,serif" font-size="14.00">identificador</text>
</g>
<!-- &lt;Arbol.Acceso.Acceso object at 0x000002C05B4EA5E0&gt;&#45;&gt;id_&lt;Arbol.Acceso.Acceso object at 0x000002C05B4EA5E0&gt; -->
<g id="edge22" class="edge"><title>&lt;Arbol.Acceso.Acceso object at 0x000002C05B4EA5E0&gt;&#45;&gt;id_&lt;Arbol.Acceso.Acceso object at 0x000002C05B4EA5E0&gt;</title>
<path fill="none" stroke="black" d="M233.492,-216.411C226.464,-207.781 217.736,-197.062 209.948,-187.497"/>
<polygon fill="black" stroke="black" points="212.44,-185.014 203.411,-179.47 207.012,-189.434 212.44,-185.014"/>
</g>
<!-- accesos_&lt;Arbol.Acceso.Acceso object at 0x000002C05B4EA5E0&gt; -->
<g id="node24" class="node"><title>accesos_&lt;Arbol.Acceso.Acceso object at 0x000002C05B4EA5E0&gt;</title>
<ellipse fill="none" stroke="black" cx="304" cy="-162" rx="39.9464" ry="18"/>
<text text-anchor="middle" x="304" y="-158.3" font-family="Times New Roman,serif" font-size="14.00">accesos</text>
</g>
<!-- &lt;Arbol.Acceso.Acceso object at 0x000002C05B4EA5E0&gt;&#45;&gt;accesos_&lt;Arbol.Acceso.Acceso object at 0x000002C05B4EA5E0&gt; -->
<g id="edge24" class="edge"><title>&lt;Arbol.Acceso.Acceso object at 0x000002C05B4EA5E0&gt;&#45;&gt;accesos_&lt;Arbol.Acceso.Acceso object at 0x000002C05B4EA5E0&gt;</title>
<path fill="none" stroke="black" d="M260.508,-216.411C267.536,-207.781 276.264,-197.062 284.052,-187.497"/>
<polygon fill="black" stroke="black" points="286.988,-189.434 290.589,-179.47 281.56,-185.014 286.988,-189.434"/>
</g>
<!-- &lt;Arbol.Unaria.Unaria object at 0x000002C05B4EA430&gt; -->
<g id="node26" class="node"><title>&lt;Arbol.Unaria.Unaria object at 0x000002C05B4EA430&gt;</title>
<ellipse fill="none" stroke="black" cx="202" cy="-90" rx="36.096" ry="18"/>
<text text-anchor="middle" x="202" y="-86.3" font-family="Times New Roman,serif" font-size="14.00">acceso</text>
</g>
<!-- accesos_&lt;Arbol.Acceso.Acceso object at 0x000002C05B4EA5E0&gt;&#45;&gt;&lt;Arbol.Unaria.Unaria object at 0x000002C05B4EA430&gt; -->
<g id="edge26" class="edge"><title>accesos_&lt;Arbol.Acceso.Acceso object at 0x000002C05B4EA5E0&gt;&#45;&gt;&lt;Arbol.Unaria.Unaria object at 0x000002C05B4EA430&gt;</title>
<path fill="none" stroke="black" d="M282.866,-146.496C267.76,-136.129 247.256,-122.058 230.675,-110.679"/>
<polygon fill="black" stroke="black" points="232.637,-107.78 222.411,-105.008 228.676,-113.552 232.637,-107.78"/>
</g>
<!-- &lt;Arbol.Unaria.Unaria object at 0x000002C05B4EA490&gt; -->
<g id="node30" class="node"><title>&lt;Arbol.Unaria.Unaria object at 0x000002C05B4EA490&gt;</title>
<ellipse fill="none" stroke="black" cx="304" cy="-90" rx="36.096" ry="18"/>
<text text-anchor="middle" x="304" y="-86.3" font-family="Times New Roman,serif" font-size="14.00">acceso</text>
</g>
<!-- accesos_&lt;Arbol.Acceso.Acceso object at 0x000002C05B4EA5E0&gt;&#45;&gt;&lt;Arbol.Unaria.Unaria object at 0x000002C05B4EA490&gt; -->
<g id="edge30" class="edge"><title>accesos_&lt;Arbol.Acceso.Acceso object at 0x000002C05B4EA5E0&gt;&#45;&gt;&lt;Arbol.Unaria.Unaria object at 0x000002C05B4EA490&gt;</title>
<path fill="none" stroke="black" d="M304,-143.697C304,-135.983 304,-126.712 304,-118.112"/>
<polygon fill="black" stroke="black" points="307.5,-118.104 304,-108.104 300.5,-118.104 307.5,-118.104"/>
</g>
<!-- &lt;Arbol.Unaria.Unaria object at 0x000002C05B4EA610&gt; -->
<g id="node34" class="node"><title>&lt;Arbol.Unaria.Unaria object at 0x000002C05B4EA610&gt;</title>
<ellipse fill="none" stroke="black" cx="405" cy="-90" rx="36.096" ry="18"/>
<text text-anchor="middle" x="405" y="-86.3" font-family="Times New Roman,serif" font-size="14.00">acceso</text>
</g>
<!-- accesos_&lt;Arbol.Acceso.Acceso object at 0x000002C05B4EA5E0&gt;&#45;&gt;&lt;Arbol.Unaria.Unaria object at 0x000002C05B4EA610&gt; -->
<g id="edge34" class="edge"><title>accesos_&lt;Arbol.Acceso.Acceso object at 0x000002C05B4EA5E0&gt;&#45;&gt;&lt;Arbol.Unaria.Unaria object at 0x000002C05B4EA610&gt;</title>
<path fill="none" stroke="black" d="M324.927,-146.496C339.748,-136.224 359.815,-122.316 376.153,-110.993"/>
<polygon fill="black" stroke="black" points="378.563,-113.581 384.789,-105.008 374.576,-107.828 378.563,-113.581"/>
</g>
<!-- exp_&lt;Arbol.Unaria.Unaria object at 0x000002C05B4EA430&gt; -->
<g id="node28" class="node"><title>exp_&lt;Arbol.Unaria.Unaria object at 0x000002C05B4EA430&gt;</title>
<ellipse fill="none" stroke="black" cx="192" cy="-18" rx="46.1964" ry="18"/>
<text text-anchor="middle" x="192" y="-14.3" font-family="Times New Roman,serif" font-size="14.00">ENTERO</text>
</g>
<!-- &lt;Arbol.Unaria.Unaria object at 0x000002C05B4EA430&gt;&#45;&gt;exp_&lt;Arbol.Unaria.Unaria object at 0x000002C05B4EA430&gt; -->
<g id="edge28" class="edge"><title>&lt;Arbol.Unaria.Unaria object at 0x000002C05B4EA430&gt;&#45;&gt;exp_&lt;Arbol.Unaria.Unaria object at 0x000002C05B4EA430&gt;</title>
<path fill="none" stroke="black" d="M199.528,-71.6966C198.426,-63.9827 197.102,-54.7125 195.873,-46.1124"/>
<polygon fill="black" stroke="black" points="199.323,-45.5088 194.443,-36.1043 192.393,-46.4988 199.323,-45.5088"/>
</g>
<!-- exp_&lt;Arbol.Unaria.Unaria object at 0x000002C05B4EA490&gt; -->
<g id="node32" class="node"><title>exp_&lt;Arbol.Unaria.Unaria object at 0x000002C05B4EA490&gt;</title>
<ellipse fill="none" stroke="black" cx="304" cy="-18" rx="46.1964" ry="18"/>
<text text-anchor="middle" x="304" y="-14.3" font-family="Times New Roman,serif" font-size="14.00">ENTERO</text>
</g>
<!-- &lt;Arbol.Unaria.Unaria object at 0x000002C05B4EA490&gt;&#45;&gt;exp_&lt;Arbol.Unaria.Unaria object at 0x000002C05B4EA490&gt; -->
<g id="edge32" class="edge"><title>&lt;Arbol.Unaria.Unaria object at 0x000002C05B4EA490&gt;&#45;&gt;exp_&lt;Arbol.Unaria.Unaria object at 0x000002C05B4EA490&gt;</title>
<path fill="none" stroke="black" d="M304,-71.6966C304,-63.9827 304,-54.7125 304,-46.1124"/>
<polygon fill="black" stroke="black" points="307.5,-46.1043 304,-36.1043 300.5,-46.1044 307.5,-46.1043"/>
</g>
<!-- exp_&lt;Arbol.Unaria.Unaria object at 0x000002C05B4EA610&gt; -->
<g id="node36" class="node"><title>exp_&lt;Arbol.Unaria.Unaria object at 0x000002C05B4EA610&gt;</title>
<ellipse fill="none" stroke="black" cx="416" cy="-18" rx="46.1964" ry="18"/>
<text text-anchor="middle" x="416" y="-14.3" font-family="Times New Roman,serif" font-size="14.00">ENTERO</text>
</g>
<!-- &lt;Arbol.Unaria.Unaria object at 0x000002C05B4EA610&gt;&#45;&gt;exp_&lt;Arbol.Unaria.Unaria object at 0x000002C05B4EA610&gt; -->
<g id="edge36" class="edge"><title>&lt;Arbol.Unaria.Unaria object at 0x000002C05B4EA610&gt;&#45;&gt;exp_&lt;Arbol.Unaria.Unaria object at 0x000002C05B4EA610&gt;</title>
<path fill="none" stroke="black" d="M407.719,-71.6966C408.931,-63.9827 410.388,-54.7125 411.739,-46.1124"/>
<polygon fill="black" stroke="black" points="415.217,-46.5265 413.312,-36.1043 408.302,-45.4397 415.217,-46.5265"/>
</g>
</g>
</svg>
